<?xml version="1.0" standalone="no"?>
<!DOCTYPE svg PUBLIC "-//W3C//DTD SVG 20010904//EN"
 "http://www.w3.org/TR/2001/REC-SVG-20010904/DTD/svg10.dtd">
<svg version="1.0" xmlns="http://www.w3.org/2000/svg"
 width="500.000000pt" height="500.000000pt" viewBox="0 0 500.000000 500.000000"
 preserveAspectRatio="xMidYMid meet">

<g transform="translate(0.000000,500.000000) scale(0.100000,-0.100000)"
fill="#000000" stroke="none">
<path d="M876 4434 c-128 -31 -247 -121 -295 -224 -49 -106 -30 -241 42 -292
45 -32 140 -36 185 -9 47 30 72 77 72 135 0 42 -5 53 -36 84 -44 44 -39 56 36
95 47 23 65 27 142 27 157 0 238 -60 238 -175 0 -107 -50 -150 -249 -216 -240
-79 -391 -180 -449 -301 -67 -138 -60 -299 18 -376 38 -38 64 -46 132 -40 39
4 57 12 74 31 30 35 39 90 20 127 l-14 30 39 0 c53 0 95 -19 189 -85 115 -81
172 -105 250 -105 83 0 131 22 192 87 101 109 106 294 9 376 -41 34 -67 41
-138 35 -49 -4 -61 -10 -90 -41 -28 -32 -33 -44 -33 -88 0 -66 38 -109 95
-109 32 0 36 -2 25 -15 -18 -22 -77 -18 -119 7 -20 12 -63 42 -95 67 -79 60
-156 90 -231 91 l-60 1 55 28 c30 16 134 57 230 91 192 68 254 101 304 164 47
58 63 93 77 170 37 198 -88 374 -306 432 -64 18 -233 16 -309 -2z m357 -53
c76 -30 167 -114 198 -183 32 -71 33 -191 2 -259 -24 -54 -81 -120 -127 -148
-18 -11 -111 -48 -207 -82 -266 -94 -351 -144 -385 -226 -19 -45 -18 -50 9
-25 36 34 92 52 159 52 77 0 121 -19 231 -99 93 -68 122 -81 177 -81 54 0 90
32 97 89 6 41 5 43 -15 32 -30 -16 -83 -13 -104 6 -18 16 -24 66 -12 98 17 42
121 59 174 28 15 -9 38 -34 50 -56 19 -33 22 -50 18 -113 -9 -135 -91 -224
-212 -232 -78 -5 -141 20 -246 98 -93 69 -143 90 -216 90 -47 0 -67 -5 -88
-21 -33 -26 -33 -39 -1 -39 46 0 57 -69 18 -112 -18 -20 -92 -25 -123 -8 -56
30 -87 134 -69 234 16 88 46 144 114 211 73 73 173 127 335 180 141 46 195 73
237 117 40 42 53 76 53 139 0 87 -38 151 -115 192 -35 19 -56 22 -160 22 -114
0 -123 -1 -173 -29 -62 -35 -116 -111 -91 -127 8 -5 18 -9 23 -9 6 0 20 -10
33 -22 36 -34 32 -91 -11 -134 -30 -30 -40 -34 -86 -34 -47 0 -56 4 -85 35
-101 106 -24 305 153 394 79 40 139 51 267 48 96 -3 132 -8 178 -26z"/>
<path d="M3303 4141 c-19 -18 -23 -19 -64 -4 -32 11 -72 14 -144 11 -122 -5
-202 -36 -264 -103 -56 -61 -74 -101 -79 -180 -6 -93 10 -147 60 -201 l41 -44
-41 0 c-32 0 -45 -6 -64 -28 -23 -28 -24 -32 -23 -217 l1 -188 28 -23 c39 -34
110 -33 146 1 l25 24 65 -20 c53 -17 84 -20 170 -17 133 6 205 35 279 113 129
137 100 350 -59 435 l-35 19 36 1 c25 0 43 8 60 26 23 25 24 30 24 194 0 164
-1 169 -24 194 -31 33 -106 37 -138 7z m114 -33 c4 -7 8 -82 9 -166 1 -171 -2
-182 -61 -182 -42 0 -55 20 -55 88 0 91 -68 142 -191 142 -117 0 -179 -48
-179 -140 0 -32 6 -48 28 -70 32 -32 61 -41 212 -64 134 -20 220 -61 265 -124
28 -40 30 -51 30 -126 0 -74 -3 -87 -30 -132 -62 -100 -175 -149 -334 -142
-83 3 -104 8 -158 35 -59 29 -63 30 -63 12 0 -41 -19 -59 -59 -59 -62 0 -65
10 -66 199 -1 91 3 174 7 184 6 12 21 17 49 17 33 0 41 -4 49 -26 6 -14 10
-44 10 -67 0 -62 28 -106 91 -141 47 -27 65 -31 149 -34 85 -3 100 -1 139 20
55 30 84 78 77 131 -9 76 -60 104 -233 131 -237 36 -313 96 -313 247 0 80 23
131 82 185 64 59 138 84 246 84 70 0 97 -5 138 -24 l51 -23 10 28 c10 25 16
29 52 29 22 0 43 -6 48 -12z m-214 -169 c51 -26 67 -51 67 -101 0 -48 12 -85
34 -101 7 -5 3 -6 -8 -3 -16 6 -68 15 -232 41 -48 8 -84 41 -84 76 0 67 43 98
138 99 35 0 73 -5 85 -11z m-252 -354 c24 -8 97 -24 161 -34 119 -20 153 -32
175 -60 26 -34 7 -89 -43 -122 -45 -29 -172 -27 -241 5 -63 30 -79 54 -86 131
-3 33 -8 68 -12 78 -9 21 -9 21 46 2z"/>
<path d="M1989 4132 c-223 -74 -342 -335 -283 -619 21 -104 65 -186 135 -254
85 -84 141 -104 294 -104 159 0 212 20 306 114 76 76 110 142 133 253 20 96
20 164 1 263 -21 111 -54 176 -127 249 -86 86 -145 108 -293 113 -87 2 -122
-1 -166 -15z m333 -55 c74 -36 159 -128 187 -201 68 -182 45 -405 -56 -537
-48 -64 -138 -124 -207 -140 -87 -19 -222 -8 -288 24 -174 85 -264 321 -214
558 25 116 102 234 180 277 79 43 118 52 231 49 96 -3 117 -6 167 -30z"/>
<path d="M2035 3973 c-75 -39 -125 -115 -144 -218 -34 -185 24 -372 131 -424
54 -26 160 -29 216 -5 111 46 171 186 159 372 -9 145 -54 231 -144 276 -43 22
-177 21 -218 -1z m215 -43 c76 -39 117 -159 108 -313 -7 -101 -36 -173 -89
-222 -47 -42 -70 -49 -153 -43 -50 3 -71 10 -99 31 -135 103 -125 457 16 542
55 33 158 35 217 5z"/>
<path d="M3958 4131 c-75 -24 -116 -51 -172 -111 -142 -152 -176 -441 -75
-646 34 -69 126 -159 196 -192 53 -25 68 -27 178 -27 116 0 123 1 187 33 122
60 210 187 212 305 1 54 -2 61 -32 88 -25 22 -42 29 -75 29 -54 0 -90 -34
-107 -100 -17 -66 -50 -118 -88 -142 -48 -30 -155 -23 -203 13 -83 64 -121
239 -84 384 20 75 48 120 98 156 34 25 49 29 104 29 60 0 123 -20 123 -39 0
-4 -11 -18 -25 -31 -55 -52 -50 -136 11 -189 29 -26 43 -31 85 -31 91 0 145
42 169 130 35 129 -44 268 -187 332 -68 31 -234 36 -315 9z m285 -41 c166 -62
241 -250 143 -355 -29 -30 -40 -35 -80 -35 -60 0 -84 13 -102 56 -22 54 -6 80
74 121 2 1 -4 17 -13 36 -24 51 -78 77 -161 77 -117 0 -190 -53 -236 -170 -29
-73 -31 -259 -4 -334 41 -114 102 -167 197 -174 82 -6 124 4 165 40 40 36 60
69 81 142 20 66 28 76 69 76 109 0 92 -152 -31 -276 -83 -85 -144 -107 -275
-102 -139 6 -224 52 -300 163 -93 136 -103 381 -21 544 28 55 113 145 161 171
83 45 242 54 333 20z"/>
<path d="M1810 2478 c-104 -89 -100 -87 -100 -39 0 54 -15 81 -44 81 -17 0
-232 -205 -845 -806 l-821 -806 0 -43 c0 -24 4 -46 9 -50 11 -6 -10 -24 911
777 l705 614 5 -695 5 -696 24 -3 c19 -3 41 13 102 74 l79 79 0 -66 c0 -67 10
-89 42 -89 9 0 138 105 285 234 147 128 459 400 693 603 l425 370 3 -590 c1
-416 5 -594 13 -604 6 -7 19 -13 28 -13 9 0 99 82 201 181 l185 180 5 -178 c5
-174 5 -178 27 -181 17 -3 160 116 615 512 l593 515 5 -512 c5 -477 6 -512 23
-515 16 -3 17 43 17 857 0 832 -1 860 -18 853 -11 -4 -279 -262 -598 -575
l-579 -567 -2 557 c-3 553 -3 558 -24 575 -15 13 -26 15 -39 8 -10 -6 -97 -78
-192 -161 l-173 -151 -5 148 c-5 139 -6 147 -28 162 -22 14 -28 9 -220 -179
-108 -107 -423 -416 -699 -688 l-503 -493 -2 672 -3 673 -21 14 c-20 13 -26
10 -84 -39z m-35 -1458 l-65 -65 0 662 0 661 63 56 62 56 3 -652 2 -653 -65
-65z m1918 247 c-16 -16 -94 -92 -175 -169 l-148 -140 1 568 1 569 171 148
172 149 3 -548 2 -548 -27 -29z m1267 906 l-1 -218 -461 -400 c-253 -220 -514
-446 -579 -503 l-119 -103 0 154 0 154 578 566 c317 312 578 566 580 567 1 0
2 -98 2 -217z m-3330 179 c0 -25 -34 -58 -257 -252 l-258 -222 250 251 c137
138 253 251 257 251 5 0 8 -13 8 -28z m1660 -95 l0 -123 -666 -579 c-366 -319
-674 -586 -685 -594 -19 -14 -20 -12 -17 35 l3 49 680 668 c374 367 681 667
682 667 2 0 3 -55 3 -123z"/>
</g>
</svg>
